<!-- Generated by IcoMoon.io -->
<svg version="1.1" xmlns="http://www.w3.org/2000/svg" width="32" height="32" viewBox="0 0 32 32">
<title>link2</title>
<path stroke-linejoin="round" stroke-linecap="round" stroke-miterlimit="4" stroke-width="2.56" stroke="#000" d="M19.84 9.6h3.84c0.84 0 1.673 0.166 2.449 0.487s1.482 0.793 2.076 1.387c0.594 0.594 1.066 1.3 1.387 2.076s0.487 1.609 0.487 2.449-0.166 1.673-0.487 2.449c-0.322 0.776-0.793 1.482-1.387 2.076s-1.3 1.066-2.076 1.387c-0.776 0.322-1.609 0.487-2.449 0.487h-3.84M12.16 22.4h-3.84c-0.84 0-1.673-0.166-2.449-0.487s-1.482-0.793-2.076-1.387c-1.2-1.2-1.875-2.828-1.875-4.525s0.674-3.325 1.875-4.526 2.828-1.874 4.525-1.874h3.84"></path>
<path stroke-linejoin="round" stroke-linecap="round" stroke-miterlimit="4" stroke-width="2.56" stroke="#000" d="M10.88 16h10.24"></path>
</svg>
