<!-- Generated by IcoMoon.io -->
<svg version="1.1" xmlns="http://www.w3.org/2000/svg" width="32" height="32" viewBox="0 0 32 32">
<title>Vector</title>
<path  stroke-linejoin="round" stroke-linecap="round" stroke-miterlimit="4" stroke-width="3.2" stroke="#000" d="M30.4 17.264c-0.252 2.724-1.274 5.319-2.947 7.483s-3.928 3.806-6.5 4.736c-2.572 0.929-5.356 1.107-8.026 0.511s-5.114-1.939-7.048-3.872c-1.934-1.934-3.277-4.379-3.873-7.048s-0.418-5.453 0.511-8.026c0.929-2.572 2.572-4.827 4.736-6.5s4.759-2.695 7.483-2.947c-1.595 2.157-2.362 4.815-2.162 7.49s1.353 5.19 3.249 7.087c1.897 1.897 4.411 3.050 7.087 3.249s5.333-0.568 7.49-2.162z"></path>
</svg>
